<svg width="730" height="888" viewBox="0 0 730 888" fill="none" xmlns="http://www.w3.org/2000/svg">
<g opacity="0.6" filter="url(#filter0_f_648_109)">
<path d="M584.356 285.662C542.274 331.253 471.187 334.084 425.58 291.986C379.972 249.888 377.115 178.803 419.197 133.212C461.279 87.6215 568.418 45.7328 614.025 87.8307C659.633 129.929 626.439 240.071 584.356 285.662Z" fill="url(#paint0_radial_648_109)" fill-opacity="0.6"/>
</g>
<g opacity="0.6" filter="url(#filter1_f_648_109)">
<path d="M270.187 459.187C287.483 503.643 265.453 553.709 220.98 571.012C176.507 588.315 126.433 566.303 109.136 521.847C91.8397 477.39 99.0524 389.239 143.525 371.936C187.998 354.633 252.89 414.73 270.187 459.187Z" fill="url(#paint1_radial_648_109)" fill-opacity="0.5"/>
</g>
<g opacity="0.6" filter="url(#filter2_f_648_109)">
<path d="M646.824 730.713C636.402 782.736 585.764 816.456 533.722 806.03C481.68 795.604 447.94 744.979 458.362 692.956C468.785 640.933 528.351 562.644 580.394 573.07C632.436 583.496 657.247 678.69 646.824 730.713Z" fill="url(#paint2_radial_648_109)" fill-opacity="0.7"/>
</g>
<defs>
<filter id="filter0_f_648_109" x="319.414" y="0.437012" width="386.551" height="391.36" filterUnits="userSpaceOnUse" color-interpolation-filters="sRGB">
<feFlood flood-opacity="0" result="BackgroundImageFix"/>
<feBlend mode="normal" in="SourceGraphic" in2="BackgroundImageFix" result="shape"/>
<feGaussianBlur stdDeviation="35" result="effect1_foregroundBlur_648_109"/>
</filter>
<filter id="filter1_f_648_109" x="0.476074" y="268.889" width="375.61" height="408.028" filterUnits="userSpaceOnUse" color-interpolation-filters="sRGB">
<feFlood flood-opacity="0" result="BackgroundImageFix"/>
<feBlend mode="normal" in="SourceGraphic" in2="BackgroundImageFix" result="shape"/>
<feGaussianBlur stdDeviation="50" result="effect1_foregroundBlur_648_109"/>
</filter>
<filter id="filter2_f_648_109" x="376.473" y="492.126" width="352.69" height="395.795" filterUnits="userSpaceOnUse" color-interpolation-filters="sRGB">
<feFlood flood-opacity="0" result="BackgroundImageFix"/>
<feBlend mode="normal" in="SourceGraphic" in2="BackgroundImageFix" result="shape"/>
<feGaussianBlur stdDeviation="40" result="effect1_foregroundBlur_648_109"/>
</filter>
<radialGradient id="paint0_radial_648_109" cx="0" cy="0" r="1" gradientUnits="userSpaceOnUse" gradientTransform="translate(520.155 189.526) rotate(148.535) scale(206.039 166.683)">
<stop stop-color="#FF5A26"/>
<stop offset="1" stop-color="#FF5A26" stop-opacity="0"/>
</radialGradient>
<radialGradient id="paint1_radial_648_109" cx="0" cy="0" r="1" gradientUnits="userSpaceOnUse" gradientTransform="translate(182.107 471.101) rotate(84.5666) scale(158.414 128.155)">
<stop stop-color="#FF5A26"/>
<stop offset="1" stop-color="#FF5A26" stop-opacity="0"/>
</radialGradient>
<radialGradient id="paint2_radial_648_109" cx="0" cy="0" r="1" gradientUnits="userSpaceOnUse" gradientTransform="translate(557.145 689.114) rotate(117.155) scale(176.195 142.54)">
<stop stop-color="#FF5A26"/>
<stop offset="1" stop-color="#FF5A26" stop-opacity="0"/>
</radialGradient>
</defs>
</svg>
