<svg width="730" height="889" viewBox="0 0 730 889" fill="none" xmlns="http://www.w3.org/2000/svg">
<g opacity="0.6" filter="url(#filter0_f_648_101)">
<path d="M584.356 286.056C542.274 331.647 471.187 334.478 425.58 292.38C379.972 250.283 377.115 179.197 419.197 133.606C461.279 88.0158 568.418 46.1271 614.025 88.225C659.633 130.323 626.439 240.466 584.356 286.056Z" fill="url(#paint0_radial_648_101)" fill-opacity="0.6"/>
</g>
<g opacity="0.6" filter="url(#filter1_f_648_101)">
<path d="M270.187 459.581C287.483 504.037 265.453 554.103 220.98 571.406C176.507 588.709 126.433 566.697 109.136 522.241C91.8397 477.785 99.0524 389.633 143.525 372.33C187.998 355.027 252.89 415.125 270.187 459.581Z" fill="url(#paint1_radial_648_101)" fill-opacity="0.5"/>
</g>
<g opacity="0.6" filter="url(#filter2_f_648_101)">
<path d="M646.824 731.107C636.402 783.13 585.764 816.851 533.722 806.424C481.68 795.998 447.94 745.373 458.362 693.35C468.785 641.327 528.351 563.038 580.394 573.464C632.436 583.891 657.247 679.084 646.824 731.107Z" fill="url(#paint2_radial_648_101)" fill-opacity="0.7"/>
</g>
<defs>
<filter id="filter0_f_648_101" x="319.414" y="0.831329" width="386.551" height="391.36" filterUnits="userSpaceOnUse" color-interpolation-filters="sRGB">
<feFlood flood-opacity="0" result="BackgroundImageFix"/>
<feBlend mode="normal" in="SourceGraphic" in2="BackgroundImageFix" result="shape"/>
<feGaussianBlur stdDeviation="35" result="effect1_foregroundBlur_648_101"/>
</filter>
<filter id="filter1_f_648_101" x="0.476074" y="269.284" width="375.61" height="408.028" filterUnits="userSpaceOnUse" color-interpolation-filters="sRGB">
<feFlood flood-opacity="0" result="BackgroundImageFix"/>
<feBlend mode="normal" in="SourceGraphic" in2="BackgroundImageFix" result="shape"/>
<feGaussianBlur stdDeviation="50" result="effect1_foregroundBlur_648_101"/>
</filter>
<filter id="filter2_f_648_101" x="376.473" y="492.521" width="352.69" height="395.795" filterUnits="userSpaceOnUse" color-interpolation-filters="sRGB">
<feFlood flood-opacity="0" result="BackgroundImageFix"/>
<feBlend mode="normal" in="SourceGraphic" in2="BackgroundImageFix" result="shape"/>
<feGaussianBlur stdDeviation="40" result="effect1_foregroundBlur_648_101"/>
</filter>
<radialGradient id="paint0_radial_648_101" cx="0" cy="0" r="1" gradientUnits="userSpaceOnUse" gradientTransform="translate(520.155 189.92) rotate(148.535) scale(206.039 166.683)">
<stop stop-color="#FF5A26"/>
<stop offset="1" stop-color="#FF5A26" stop-opacity="0"/>
</radialGradient>
<radialGradient id="paint1_radial_648_101" cx="0" cy="0" r="1" gradientUnits="userSpaceOnUse" gradientTransform="translate(182.107 471.495) rotate(84.5666) scale(158.414 128.155)">
<stop stop-color="#FF5A26"/>
<stop offset="1" stop-color="#FF5A26" stop-opacity="0"/>
</radialGradient>
<radialGradient id="paint2_radial_648_101" cx="0" cy="0" r="1" gradientUnits="userSpaceOnUse" gradientTransform="translate(557.145 689.508) rotate(117.155) scale(176.195 142.54)">
<stop stop-color="#FF5A26"/>
<stop offset="1" stop-color="#FF5A26" stop-opacity="0"/>
</radialGradient>
</defs>
</svg>
