<svg width="50" height="50" viewBox="0 0 50 50" fill="none" xmlns="http://www.w3.org/2000/svg">
<path d="M15.5064 11.146C16.8377 11.146 18.0689 11.2502 19.1939 11.5585C20.321 11.7647 21.2439 12.1772 22.0627 12.6918C22.8835 13.2064 23.4981 13.9293 23.9064 14.8564C24.3168 15.7835 24.5231 16.9189 24.5231 18.1543C24.5231 19.5981 24.2147 20.8335 23.4981 21.7606C22.8835 22.6897 21.8585 23.5127 20.6293 24.1314C22.371 24.6481 23.7022 25.5752 24.5231 26.8106C25.3418 28.0481 25.8543 29.5939 25.8543 31.346C25.8543 32.7897 25.546 34.0252 25.0335 35.0564C24.5231 36.0877 23.7022 37.0147 22.7793 37.6335C21.7768 38.2967 20.6686 38.7843 19.5022 39.0752C18.2731 39.3856 17.0439 39.5918 15.8147 39.5918H2.0835V11.146H15.5064ZM14.6856 22.6877C15.8127 22.6877 16.7356 22.3793 17.4522 21.8647C18.1689 21.3502 18.4772 20.421 18.4772 19.2877C18.4772 18.6689 18.3731 18.0502 18.1689 17.6397C17.9647 17.2272 17.6564 16.9168 17.2481 16.6085C16.8304 16.3744 16.3814 16.2011 15.9147 16.0939C15.4022 15.9897 14.8918 15.9897 14.2752 15.9897H8.3335V22.6897L14.6856 22.6877ZM14.9939 34.8502C15.6085 34.8502 16.2231 34.746 16.7356 34.6439C17.2481 34.5397 17.7606 34.3356 18.1689 34.0252C18.5864 33.7236 18.9356 33.3374 19.1939 32.8918C19.3981 32.3772 19.6043 31.7585 19.6043 31.0377C19.6043 29.5939 19.1939 28.5627 18.3752 27.8418C17.5543 27.2231 16.4272 26.9147 15.096 26.9147H8.3335V34.8522L14.9939 34.8502ZM34.7689 34.746C35.5877 35.571 36.8168 35.9835 38.4564 35.9835C39.5835 35.9835 40.6085 35.6752 41.4272 35.1606C42.2481 34.5418 42.7606 33.9231 42.9647 33.3043H47.9856C47.1647 35.7772 45.9356 37.5293 44.2981 38.6627C42.6564 39.6939 40.7106 40.3127 38.3543 40.3127C36.8468 40.3173 35.3518 40.0374 33.9481 39.4877C32.6849 39.014 31.5584 38.2353 30.6689 37.221C29.7174 36.2722 29.0141 35.1038 28.621 33.8189C28.1085 32.4793 27.9022 31.0377 27.9022 29.3877C27.9022 27.8418 28.1085 26.4002 28.621 25.0585C29.1144 23.7669 29.8442 22.5785 30.7731 21.5543C31.6939 20.6272 32.821 19.8043 34.0502 19.2877C35.4183 18.7378 36.8798 18.4577 38.3543 18.4627C40.096 18.4627 41.6335 18.7731 42.9647 19.4939C44.2981 20.2147 45.321 21.0397 46.1397 22.2772C46.9606 23.4106 47.5772 24.7502 47.9856 26.1939C48.1897 27.6356 48.2918 29.0793 48.1897 30.7272H33.3335C33.3335 32.3772 33.9481 33.9231 34.7689 34.7481M41.2231 23.9272C40.5064 23.2064 39.3793 22.7939 38.046 22.7939C37.2642 22.7822 36.4911 22.9587 35.7918 23.3085C35.1772 23.6189 34.7689 24.0314 34.3585 24.4439C33.9813 24.8424 33.7318 25.3444 33.6418 25.8856C33.5377 26.4022 33.4356 26.8127 33.4356 27.2252H42.6564C42.4522 25.6793 41.9397 24.6502 41.2231 23.9272ZM32.2064 13.1043H43.6814V15.8877H32.2085L32.2064 13.1043Z" fill="#C2BEBE"/>
</svg>
