<svg width="34" height="33" viewBox="0 0 34 33" fill="none" xmlns="http://www.w3.org/2000/svg">
<path d="M10.7341 7.35645C11.6128 7.35645 12.4254 7.4252 13.1679 7.6287C13.9118 7.76482 14.5209 8.03707 15.0613 8.3767C15.603 8.71632 16.0086 9.19345 16.2781 9.80532C16.549 10.4172 16.6851 11.1666 16.6851 11.9819C16.6851 12.9348 16.4816 13.7502 16.0086 14.3621C15.603 14.9753 14.9265 15.5184 14.1153 15.9268C15.2648 16.2678 16.1434 16.8797 16.6851 17.6951C17.2255 18.5118 17.5637 19.5321 17.5637 20.6884C17.5637 21.6413 17.3602 22.4567 17.022 23.1373C16.6851 23.8179 16.1434 24.4298 15.5343 24.8382C14.8726 25.2759 14.1412 25.5977 13.3714 25.7897C12.5601 25.9946 11.7489 26.1307 10.9376 26.1307H1.875V7.35645H10.7341ZM10.1924 14.9739C10.9362 14.9739 11.5454 14.7704 12.0184 14.4308C12.4914 14.0912 12.6949 13.4779 12.6949 12.7299C12.6949 12.3216 12.6261 11.9132 12.4914 11.6423C12.3566 11.3701 12.1531 11.1652 11.8836 10.9617C11.6079 10.8072 11.3116 10.6928 11.0036 10.6221C10.6654 10.5533 10.3285 10.5533 9.9215 10.5533H6V14.9753L10.1924 14.9739ZM10.3959 23.0012C10.8015 23.0012 11.2071 22.9324 11.5454 22.8651C11.8836 22.7963 12.2219 22.6616 12.4914 22.4567C12.7669 22.2576 12.9974 22.0028 13.1679 21.7087C13.3026 21.3691 13.4387 20.9607 13.4387 20.4849C13.4387 19.5321 13.1679 18.8514 12.6275 18.3757C12.0857 17.9673 11.3419 17.7638 10.4633 17.7638H6V23.0026L10.3959 23.0012ZM23.4474 22.9324C23.9877 23.4769 24.799 23.7492 25.8811 23.7492C26.625 23.7492 27.3015 23.5457 27.8419 23.2061C28.3836 22.7977 28.7219 22.3893 28.8566 21.9809H32.1704C31.6286 23.6131 30.8174 24.7694 29.7366 25.5174C28.6531 26.1981 27.3689 26.6064 25.8137 26.6064C24.8188 26.6095 23.8321 26.4248 22.9056 26.0619C22.0719 25.7493 21.3284 25.2354 20.7414 24.5659C20.1134 23.9397 19.6492 23.1686 19.3897 22.3206C19.0515 21.4364 18.9154 20.4849 18.9154 19.3959C18.9154 18.3757 19.0515 17.4242 19.3897 16.5387C19.7154 15.6862 20.1971 14.9019 20.8101 14.2259C21.4179 13.6141 22.1618 13.0709 22.973 12.7299C23.876 12.367 24.8406 12.1821 25.8137 12.1854C26.9632 12.1854 27.978 12.3903 28.8566 12.8661C29.7366 13.3418 30.4117 13.8863 30.9521 14.7031C31.4939 15.4511 31.9009 16.3352 32.1704 17.2881C32.3051 18.2396 32.3725 19.1924 32.3051 20.2801H22.5C22.5 21.3691 22.9056 22.3893 23.4474 22.9338M27.7071 15.7921C27.2341 15.3163 26.4902 15.0441 25.6102 15.0441C25.0943 15.0363 24.584 15.1528 24.1225 15.3837C23.7169 15.5886 23.4474 15.8608 23.1765 16.1331C22.9276 16.396 22.7629 16.7274 22.7035 17.0846C22.6348 17.4256 22.5674 17.6964 22.5674 17.9687H28.6531C28.5184 16.9484 28.1801 16.2692 27.7071 15.7921ZM21.7561 8.64895H29.3296V10.4859H21.7575L21.7561 8.64895Z" fill="#C2BEBE"/>
</svg>
