<svg width="34" height="34" viewBox="0 0 34 34" fill="none" xmlns="http://www.w3.org/2000/svg">
<path d="M0.13562 4.16667C0.13562 2.14175 1.77737 0.5 3.80229 0.5H29.469C31.4939 0.5 33.1356 2.14175 33.1356 4.16667V29.8333C33.1356 31.8583 31.4939 33.5 29.469 33.5H3.80229C1.77737 33.5 0.13562 31.8583 0.13562 29.8333V4.16667Z" fill="#FF5722"/>
<path d="M2.88562 3.25V30.75H30.3856V3.25H2.88562ZM16.3524 23.4167L15.6539 20.7492H12.0642L11.3666 23.4167H8.58271L12.6555 10.3826H15.0635L19.1638 23.4167H16.3524ZM22.9148 23.4167H20.3729V13.7312H22.9148V23.4167ZM22.6416 12.1912C22.3932 12.4478 22.0586 12.5762 21.6342 12.5762C21.2098 12.5762 20.8752 12.4478 20.6268 12.1912C20.3784 11.9345 20.2555 11.6118 20.2555 11.2241C20.2555 10.8299 20.3811 10.5082 20.6314 10.257C20.8816 10.0058 21.2171 9.88117 21.6342 9.88117C22.0513 9.88117 22.3859 10.0068 22.637 10.257C22.8882 10.5073 23.0129 10.8299 23.0129 11.2241C23.0129 11.6118 22.8891 11.9345 22.6416 12.1912Z" fill="#1C0802"/>
<path d="M12.6381 18.5556H15.0727L13.8554 13.9099L12.6381 18.5556Z" fill="#1C0802"/>
</svg>
