<svg width="25" height="25" viewBox="0 0 25 25" fill="none" xmlns="http://www.w3.org/2000/svg">
<path d="M0.602051 3.08525C0.602051 1.61258 1.79605 0.418579 3.26872 0.418579H21.9354C23.4081 0.418579 24.6021 1.61258 24.6021 3.08525V21.7519C24.6021 23.2246 23.4081 24.4186 21.9354 24.4186H3.26872C1.79605 24.4186 0.602051 23.2246 0.602051 21.7519V3.08525Z" fill="#FF5722"/>
<path d="M2.60205 2.41858V22.4186H22.6021V2.41858H2.60205ZM12.3961 17.0852L11.8881 15.1452H9.27739L8.77005 17.0852H6.74539L9.70739 7.60591H11.4587L14.4407 17.0852H12.3961ZM17.1687 17.0852H15.3201V10.0412H17.1687V17.0852ZM16.9701 8.92125C16.7894 9.10791 16.5461 9.20125 16.2374 9.20125C15.9287 9.20125 15.6854 9.10791 15.5047 8.92125C15.3241 8.73458 15.2347 8.49991 15.2347 8.21791C15.2347 7.93125 15.3261 7.69725 15.5081 7.51458C15.6901 7.33191 15.9341 7.24125 16.2374 7.24125C16.5407 7.24125 16.7841 7.33258 16.9667 7.51458C17.1494 7.69658 17.2401 7.93125 17.2401 8.21791C17.2401 8.49991 17.1501 8.73458 16.9701 8.92125Z" fill="#1C0802"/>
<path d="M9.69482 13.5499H11.4655L10.5802 10.1713L9.69482 13.5499Z" fill="#1C0802"/>
</svg>
