<svg width="547" height="643" viewBox="0 0 547 643" fill="none" xmlns="http://www.w3.org/2000/svg">
<g opacity="0.6" filter="url(#filter0_f_705_274)">
<path d="M423.062 213.772C394.968 244.208 347.51 246.099 317.062 217.994C286.614 189.889 284.706 142.432 312.8 111.995C340.895 81.5581 412.421 53.5929 442.869 81.6978C473.317 109.803 451.157 183.335 423.062 213.772Z" fill="url(#paint0_radial_705_274)" fill-opacity="0.6"/>
</g>
<g opacity="0.6" filter="url(#filter1_f_705_274)">
<path d="M213.32 329.618C224.867 359.298 210.159 392.722 180.469 404.274C150.778 415.825 117.348 401.13 105.801 371.451C94.2536 341.771 99.0689 282.92 128.759 271.369C158.45 259.817 201.772 299.939 213.32 329.618Z" fill="url(#paint1_radial_705_274)" fill-opacity="0.5"/>
</g>
<g opacity="0.6" filter="url(#filter2_f_705_274)">
<path d="M464.767 510.892C457.808 545.623 424.002 568.135 389.258 561.174C354.514 554.214 331.99 520.416 338.948 485.685C345.906 450.954 385.673 398.687 420.417 405.648C455.161 412.609 471.725 476.161 464.767 510.892Z" fill="url(#paint2_radial_705_274)" fill-opacity="0.7"/>
</g>
<defs>
<filter id="filter0_f_705_274" x="222.917" y="0.0856934" width="304.6" height="307.81" filterUnits="userSpaceOnUse" color-interpolation-filters="sRGB">
<feFlood flood-opacity="0" result="BackgroundImageFix"/>
<feBlend mode="normal" in="SourceGraphic" in2="BackgroundImageFix" result="shape"/>
<feGaussianBlur stdDeviation="35" result="effect1_foregroundBlur_705_274"/>
</filter>
<filter id="filter1_f_705_274" x="0.0195312" y="169.335" width="317.238" height="338.881" filterUnits="userSpaceOnUse" color-interpolation-filters="sRGB">
<feFlood flood-opacity="0" result="BackgroundImageFix"/>
<feBlend mode="normal" in="SourceGraphic" in2="BackgroundImageFix" result="shape"/>
<feGaussianBlur stdDeviation="50" result="effect1_foregroundBlur_705_274"/>
</filter>
<filter id="filter2_f_705_274" x="257.686" y="325.018" width="288.642" height="317.419" filterUnits="userSpaceOnUse" color-interpolation-filters="sRGB">
<feFlood flood-opacity="0" result="BackgroundImageFix"/>
<feBlend mode="normal" in="SourceGraphic" in2="BackgroundImageFix" result="shape"/>
<feGaussianBlur stdDeviation="40" result="effect1_foregroundBlur_705_274"/>
</filter>
<radialGradient id="paint0_radial_705_274" cx="0" cy="0" r="1" gradientUnits="userSpaceOnUse" gradientTransform="translate(380.201 149.591) rotate(148.535) scale(137.554 111.279)">
<stop stop-color="#FF5A26"/>
<stop offset="1" stop-color="#FF5A26" stop-opacity="0"/>
</radialGradient>
<radialGradient id="paint1_radial_705_274" cx="0" cy="0" r="1" gradientUnits="userSpaceOnUse" gradientTransform="translate(154.517 337.572) rotate(84.5666) scale(105.759 85.5577)">
<stop stop-color="#FF5A26"/>
<stop offset="1" stop-color="#FF5A26" stop-opacity="0"/>
</radialGradient>
<radialGradient id="paint2_radial_705_274" cx="0" cy="0" r="1" gradientUnits="userSpaceOnUse" gradientTransform="translate(404.896 483.12) rotate(117.155) scale(117.629 95.1607)">
<stop stop-color="#FF5A26"/>
<stop offset="1" stop-color="#FF5A26" stop-opacity="0"/>
</radialGradient>
</defs>
</svg>
