<svg width="547" height="643" viewBox="0 0 547 643" fill="none" xmlns="http://www.w3.org/2000/svg">
<g opacity="0.6" filter="url(#filter0_f_705_232)">
<path d="M423.062 213.962C394.968 244.399 347.51 246.289 317.062 218.184C286.614 190.08 284.706 142.622 312.8 112.185C340.895 81.7488 412.421 53.7836 442.869 81.8885C473.317 109.993 451.157 183.526 423.062 213.962Z" fill="url(#paint0_radial_705_232)" fill-opacity="0.6"/>
</g>
<g opacity="0.6" filter="url(#filter1_f_705_232)">
<path d="M213.32 329.809C224.867 359.488 210.159 392.913 180.469 404.465C150.778 416.016 117.348 401.321 105.801 371.641C94.2536 341.962 99.0689 283.111 128.759 271.56C158.45 260.008 201.772 300.13 213.32 329.809Z" fill="url(#paint1_radial_705_232)" fill-opacity="0.5"/>
</g>
<g opacity="0.6" filter="url(#filter2_f_705_232)">
<path d="M464.767 511.082C457.808 545.813 424.002 568.326 389.258 561.365C354.514 554.404 331.99 520.606 338.948 485.875C345.906 451.144 385.673 398.878 420.417 405.839C455.161 412.799 471.725 476.351 464.767 511.082Z" fill="url(#paint2_radial_705_232)" fill-opacity="0.7"/>
</g>
<defs>
<filter id="filter0_f_705_232" x="222.917" y="0.276337" width="304.6" height="307.81" filterUnits="userSpaceOnUse" color-interpolation-filters="sRGB">
<feFlood flood-opacity="0" result="BackgroundImageFix"/>
<feBlend mode="normal" in="SourceGraphic" in2="BackgroundImageFix" result="shape"/>
<feGaussianBlur stdDeviation="35" result="effect1_foregroundBlur_705_232"/>
</filter>
<filter id="filter1_f_705_232" x="0.0195312" y="169.526" width="317.238" height="338.881" filterUnits="userSpaceOnUse" color-interpolation-filters="sRGB">
<feFlood flood-opacity="0" result="BackgroundImageFix"/>
<feBlend mode="normal" in="SourceGraphic" in2="BackgroundImageFix" result="shape"/>
<feGaussianBlur stdDeviation="50" result="effect1_foregroundBlur_705_232"/>
</filter>
<filter id="filter2_f_705_232" x="257.686" y="325.209" width="288.642" height="317.419" filterUnits="userSpaceOnUse" color-interpolation-filters="sRGB">
<feFlood flood-opacity="0" result="BackgroundImageFix"/>
<feBlend mode="normal" in="SourceGraphic" in2="BackgroundImageFix" result="shape"/>
<feGaussianBlur stdDeviation="40" result="effect1_foregroundBlur_705_232"/>
</filter>
<radialGradient id="paint0_radial_705_232" cx="0" cy="0" r="1" gradientUnits="userSpaceOnUse" gradientTransform="translate(380.201 149.781) rotate(148.535) scale(137.554 111.279)">
<stop stop-color="#FF5A26"/>
<stop offset="1" stop-color="#FF5A26" stop-opacity="0"/>
</radialGradient>
<radialGradient id="paint1_radial_705_232" cx="0" cy="0" r="1" gradientUnits="userSpaceOnUse" gradientTransform="translate(154.517 337.763) rotate(84.5666) scale(105.759 85.5577)">
<stop stop-color="#FF5A26"/>
<stop offset="1" stop-color="#FF5A26" stop-opacity="0"/>
</radialGradient>
<radialGradient id="paint2_radial_705_232" cx="0" cy="0" r="1" gradientUnits="userSpaceOnUse" gradientTransform="translate(404.896 483.311) rotate(117.155) scale(117.629 95.1607)">
<stop stop-color="#FF5A26"/>
<stop offset="1" stop-color="#FF5A26" stop-opacity="0"/>
</radialGradient>
</defs>
</svg>
