<svg width="2759" height="3266" viewBox="0 0 2759 3266" fill="none" xmlns="http://www.w3.org/2000/svg">
<g opacity="0.6" filter="url(#filter0_f_441_1494)">
<path d="M2206.6 1158.39C2038.76 1340.22 1755.25 1351.52 1573.35 1183.62C1391.46 1015.72 1380.06 732.208 1547.89 550.379C1715.73 368.551 2143.03 201.486 2324.93 369.385C2506.82 537.284 2374.44 976.566 2206.6 1158.39Z" fill="url(#paint0_radial_441_1494)" fill-opacity="0.6"/>
</g>
<g opacity="0.6" filter="url(#filter1_f_441_1494)">
<path d="M957.321 1716.46C1026.31 1893.77 938.44 2093.44 761.07 2162.45C583.699 2231.46 383.989 2143.67 315.005 1966.37C246.021 1789.06 274.787 1437.49 452.158 1368.48C629.529 1299.47 888.337 1539.16 957.321 1716.46Z" fill="url(#paint1_radial_441_1494)" fill-opacity="0.5"/>
</g>
<g opacity="0.6" filter="url(#filter2_f_441_1494)">
<path d="M2459.46 2667.39C2417.89 2874.87 2215.94 3009.36 2008.38 2967.77C1800.82 2926.19 1666.25 2724.28 1707.82 2516.8C1749.39 2309.32 1986.96 1997.08 2194.52 2038.66C2402.08 2080.24 2501.03 2459.9 2459.46 2667.39Z" fill="url(#paint2_radial_441_1494)" fill-opacity="0.7"/>
</g>
<defs>
<filter id="filter0_f_441_1494" x="1129.11" y="0.0141602" width="1583.32" height="1602.5" filterUnits="userSpaceOnUse" color-interpolation-filters="sRGB">
<feFlood flood-opacity="0" result="BackgroundImageFix"/>
<feBlend mode="normal" in="SourceGraphic" in2="BackgroundImageFix" result="shape"/>
<feGaussianBlur stdDeviation="150" result="effect1_foregroundBlur_441_1494"/>
</filter>
<filter id="filter1_f_441_1494" x="0.465935" y="1076.33" width="1260.38" height="1389.68" filterUnits="userSpaceOnUse" color-interpolation-filters="sRGB">
<feFlood flood-opacity="0" result="BackgroundImageFix"/>
<feBlend mode="normal" in="SourceGraphic" in2="BackgroundImageFix" result="shape"/>
<feGaussianBlur stdDeviation="140" result="effect1_foregroundBlur_441_1494"/>
</filter>
<filter id="filter2_f_441_1494" x="1410.28" y="1744.9" width="1348.51" height="1520.42" filterUnits="userSpaceOnUse" color-interpolation-filters="sRGB">
<feFlood flood-opacity="0" result="BackgroundImageFix"/>
<feBlend mode="normal" in="SourceGraphic" in2="BackgroundImageFix" result="shape"/>
<feGaussianBlur stdDeviation="145" result="effect1_foregroundBlur_441_1494"/>
</filter>
<radialGradient id="paint0_radial_441_1494" cx="0" cy="0" r="1" gradientUnits="userSpaceOnUse" gradientTransform="translate(1950.55 774.976) rotate(148.535) scale(821.744 664.782)">
<stop stop-color="#FF5A26"/>
<stop offset="1" stop-color="#FF5A26" stop-opacity="0"/>
</radialGradient>
<radialGradient id="paint1_radial_441_1494" cx="0" cy="0" r="1" gradientUnits="userSpaceOnUse" gradientTransform="translate(606.035 1763.98) rotate(84.5666) scale(631.802 511.121)">
<stop stop-color="#FF5A26"/>
<stop offset="1" stop-color="#FF5A26" stop-opacity="0"/>
</radialGradient>
<radialGradient id="paint2_radial_441_1494" cx="0" cy="0" r="1" gradientUnits="userSpaceOnUse" gradientTransform="translate(2101.79 2501.48) rotate(117.155) scale(702.716 568.489)">
<stop stop-color="#FF5A26"/>
<stop offset="1" stop-color="#FF5A26" stop-opacity="0"/>
</radialGradient>
</defs>
</svg>
