<svg width="23" height="23" viewBox="0 0 23 23" fill="none" xmlns="http://www.w3.org/2000/svg">
<path d="M13.5277 0.418579L15.8449 0.43336C15.8885 0.466188 15.9239 0.487673 15.9613 0.503829C16.3813 0.687735 16.8366 0.819392 17.2151 1.0638C18.3123 1.7702 19.3839 2.51459 20.4547 3.25864C20.9524 3.60359 21.4431 3.96281 21.9019 4.35349C22.243 4.64361 22.3961 5.05525 22.397 5.49422L22.3961 19.308C22.3956 19.5007 22.3615 19.6988 22.3061 19.8841C22.0545 20.7287 21.4965 21.3067 20.6183 21.5324C20.1552 21.6512 19.666 21.6881 19.1857 21.7264C18.4364 21.7868 17.6844 21.8163 16.9337 21.86L15.5134 21.9459L13.2394 22.0755L11.8414 22.1601L9.54513 22.289L8.35842 22.3361C8.32027 22.338 8.28496 22.3897 8.24894 22.4186C7.34578 22.4186 6.44333 22.4186 5.53254 22.4045C5.48889 22.371 5.45571 22.344 5.41685 22.3333C4.86644 22.1788 4.40492 21.8842 4.05005 21.4564C3.55854 20.865 3.09152 20.2554 2.61883 19.6498C2.0379 18.9058 1.44188 18.1728 0.892888 17.4074C0.570205 16.9602 0.39737 16.4276 0.397836 15.882C0.396289 11.8022 0.396821 7.72241 0.399433 3.64261C0.399433 3.52505 0.420725 3.40628 0.441663 3.28941C0.662041 2.03334 1.62198 1.3632 2.76362 1.23894C3.35626 1.17449 3.95299 1.14561 4.54847 1.10745L6.12235 1.01945L6.79892 0.976485L8.83946 0.805985L9.97062 0.720048L11.8442 0.591142L13.4181 0.501079C13.4564 0.498501 13.4917 0.447454 13.5277 0.418579ZM4.6017 20.001C4.6961 20.1198 4.80132 20.2325 4.88383 20.3588C5.28377 20.965 5.85708 21.1852 6.58546 21.1383L11.5198 20.8537L17.0729 20.5286L19.8378 20.3561C20.6572 20.2923 21.0529 19.8633 21.0688 19.067V18.8951L21.0751 5.85619C21.0758 5.46345 20.9358 5.1888 20.6114 4.96931L16.7035 2.30181C16.0749 1.85872 15.4075 1.65195 14.6346 1.71108L10.2583 2.02458L5.6823 2.35149L2.81011 2.56839C2.22988 2.61995 1.87022 2.9637 1.76624 3.51508C1.74083 3.65581 1.72854 3.79847 1.72951 3.94133L1.71762 15.3267C1.71354 16.0726 1.94918 16.6931 2.41016 17.2637L4.6017 20.001Z" fill="white"/>
<path d="M4.62985 19.9249L2.46072 17.2181C2.0023 16.6515 1.76797 16.0356 1.77202 15.2949L1.78385 3.98986C1.78385 3.84855 1.79479 3.70519 1.82037 3.56662C1.92377 3.0193 2.28144 2.67797 2.85844 2.6266L5.71469 2.41123L10.2654 2.08662L14.6173 1.77533C15.3859 1.71663 16.0495 1.92193 16.6747 2.3619C17.9561 3.26386 19.2615 4.1339 20.5609 5.0106C20.8835 5.22853 21.0227 5.50125 21.022 5.89122L21.0158 18.8389V19.0096C20.9999 19.7996 20.6064 20.2256 19.7916 20.2889C18.8763 20.3602 17.9589 20.4063 17.0421 20.4602L11.5198 20.7828L6.61283 21.0656C5.88849 21.1122 5.31837 20.8935 4.92065 20.2916C4.8386 20.1662 4.73396 20.0542 4.62985 19.9249ZM5.76021 12.0757V17.7909L5.76162 18.8568C5.77115 19.3349 6.01324 19.5729 6.50731 19.6003C6.63136 19.6069 6.75682 19.6028 6.88157 19.5955L11.018 19.3596L18.9169 18.9229C19.4092 18.8963 19.6366 18.6875 19.6827 18.2157C19.6917 18.1308 19.6889 18.045 19.6889 17.9597L19.6896 6.95582C19.6896 6.89182 19.6917 6.82782 19.6876 6.76382C19.658 6.3259 19.4635 6.14721 19.0136 6.17042L14.9426 6.39724C13.0358 6.50452 11.1291 6.6125 9.22239 6.72115L6.36262 6.88721C5.99807 6.90974 5.83326 7.0618 5.77821 7.40654C5.7652 7.49797 5.75942 7.59022 5.76092 7.6825L5.76021 12.0757ZM15.8484 3.07715C15.5031 2.89591 15.1281 2.83584 14.742 2.85649C14.1486 2.88789 13.5552 2.93516 12.9616 2.97663L4.50087 3.57122C4.24519 3.58914 3.9881 3.60706 3.73577 3.65126C3.65107 3.66594 3.54414 3.74854 3.51803 3.82329C3.49862 3.87586 3.5842 3.98201 3.64684 4.04004C3.76277 4.14721 3.89634 4.23715 4.02268 4.33392C4.32247 4.56261 4.6415 4.77116 4.91659 5.02391C5.43836 5.50313 6.04554 5.61389 6.74111 5.56525L12.2173 5.23314L18.1126 4.89113C18.1664 4.88857 18.2203 4.87253 18.3387 4.8512C18.2305 4.74248 18.1677 4.6592 18.0858 4.60049C17.797 4.39419 17.5054 4.19153 17.2111 3.99259C16.759 3.68449 16.3047 3.37933 15.8484 3.07715Z" fill="black"/>
<path d="M5.83212 12.0375L5.83282 7.58374C5.83282 7.48986 5.83562 7.39493 5.84997 7.30261C5.90457 6.95141 6.06801 6.79668 6.42956 6.77356L9.26575 6.60439L14.9388 6.27441L18.976 6.04335C19.4224 6.0197 19.6153 6.20225 19.6445 6.64786C19.6487 6.71305 19.6466 6.77825 19.6466 6.84345L19.6459 18.0534L19.6398 18.3142C19.5941 18.7949 19.3685 19.0075 18.8803 19.0346L11.0465 19.4795L6.94423 19.7198L6.57323 19.7247C6.08306 19.6969 5.84297 19.4543 5.83352 18.968L5.83212 17.8814V12.0375ZM13.8411 12.049L11.5892 8.64046C11.5106 8.52154 11.4334 8.48224 11.2885 8.49789L10.3287 8.56222L8.56296 8.6907C8.12896 8.73017 7.86647 9.13561 7.98669 9.556L8.92188 9.63545V17.1623L8.28488 17.3409C8.00244 17.4236 7.88152 17.6601 7.97654 17.9623L10.1304 17.8393L10.9788 17.7702C11.3445 17.7103 11.5414 17.4876 11.5906 17.1243L10.4129 16.8574V11.196L10.5004 11.3177L13.2072 15.5168C13.6051 16.13 14.0137 16.7363 14.4329 17.3353C14.7316 17.7613 15.1719 17.8917 15.6668 17.7856C15.9766 17.7199 16.2739 17.5949 16.5773 17.4977C16.7353 17.4468 16.7892 17.3531 16.7885 17.1771L16.7833 9.44038C16.7833 8.98817 16.7833 8.98817 17.2336 8.89794C17.6889 8.80684 17.803 8.6262 17.6991 8.1427L14.9778 8.30699C14.6817 8.32803 14.4576 8.57387 14.4126 8.85987C14.3906 8.99774 14.4193 9.07371 14.5853 9.08328L15.4092 9.17368V14.4206C14.8874 13.6297 14.3647 12.8394 13.8411 12.0497V12.049ZM15.852 2.89963C16.2987 3.2061 16.7441 3.51441 17.1882 3.82456C17.4802 4.02728 17.7694 4.23379 18.0559 4.44402C18.1371 4.50382 18.1994 4.58867 18.3067 4.69942L18.0825 4.7401L12.2358 5.08851L6.80476 5.42684C6.11491 5.47639 5.51275 5.36356 4.99528 4.87536C4.72246 4.61805 4.40606 4.40542 4.10857 4.17245C3.98344 4.07387 3.85097 3.98225 3.736 3.87289C3.67387 3.81378 3.589 3.70598 3.60825 3.65209C3.63415 3.57611 3.7409 3.49196 3.82419 3.47701C4.07444 3.43216 4.32941 3.41373 4.58298 3.39547L12.9741 2.78975L14.7398 2.66735C15.1226 2.64649 15.4944 2.70734 15.852 2.89963Z" fill="white"/>
<path d="M13.8133 11.9935L15.4187 14.3662V9.08817L14.5703 8.99723C14.3991 8.98778 14.3695 8.91136 14.392 8.77267C14.4385 8.48499 14.6696 8.2377 14.9742 8.21654L17.7771 8.05127C17.8841 8.53745 17.7666 8.71933 17.2977 8.8108C16.8337 8.90104 16.8337 8.90104 16.8337 9.35662L16.8393 17.139C16.84 17.316 16.7845 17.4103 16.6218 17.4615L15.684 17.7511C15.1743 17.8571 14.7208 17.7267 14.4133 17.2982C13.9817 16.6955 13.5609 16.0856 13.1509 15.4689L10.3626 11.2449C10.343 11.2148 10.3204 11.1868 10.2725 11.1226V16.8174L11.4857 17.0859C11.435 17.4514 11.2323 17.6752 10.8556 17.7356C10.5683 17.7812 10.2734 17.788 9.98177 17.8052L7.76339 17.9288C7.66552 17.6249 7.79007 17.387 8.08097 17.3038L8.73704 17.1242V9.55284L7.77385 9.47292C7.65002 9.05004 7.92038 8.64221 8.36737 8.60251C8.97225 8.54777 9.57984 8.51437 10.186 8.47344C10.5155 8.45158 10.8464 8.44336 11.1746 8.40856C11.3238 8.39282 11.4035 8.43235 11.4842 8.55197L13.8133 11.9935Z" fill="black"/>
</svg>
