<svg width="2759" height="3266" viewBox="0 0 2759 3266" fill="none" xmlns="http://www.w3.org/2000/svg">
<g opacity="0.6" filter="url(#filter0_f_441_1493)">
<path d="M2206.6 1159.02C2038.76 1340.85 1755.25 1352.14 1573.35 1184.24C1391.46 1016.34 1380.06 732.83 1547.89 551.002C1715.73 369.173 2143.03 202.109 2324.93 370.008C2506.82 537.906 2374.44 977.188 2206.6 1159.02Z" fill="url(#paint0_radial_441_1493)" fill-opacity="0.6"/>
</g>
<g opacity="0.6" filter="url(#filter1_f_441_1493)">
<path d="M957.321 1717.08C1026.31 1894.39 938.44 2094.07 761.07 2163.07C583.699 2232.08 383.989 2144.29 315.005 1966.99C246.021 1789.68 274.787 1438.11 452.158 1369.1C629.529 1300.09 888.337 1539.78 957.321 1717.08Z" fill="url(#paint1_radial_441_1493)" fill-opacity="0.5"/>
</g>
<g opacity="0.6" filter="url(#filter2_f_441_1493)">
<path d="M2459.46 2668.01C2417.89 2875.49 2215.94 3009.98 2008.38 2968.4C1800.82 2926.81 1666.25 2724.91 1707.82 2517.42C1749.39 2309.94 1986.96 1997.7 2194.52 2039.28C2402.08 2080.87 2501.03 2460.52 2459.46 2668.01Z" fill="url(#paint2_radial_441_1493)" fill-opacity="0.7"/>
</g>
<defs>
<filter id="filter0_f_441_1493" x="1129.11" y="0.636536" width="1583.32" height="1602.5" filterUnits="userSpaceOnUse" color-interpolation-filters="sRGB">
<feFlood flood-opacity="0" result="BackgroundImageFix"/>
<feBlend mode="normal" in="SourceGraphic" in2="BackgroundImageFix" result="shape"/>
<feGaussianBlur stdDeviation="150" result="effect1_foregroundBlur_441_1493"/>
</filter>
<filter id="filter1_f_441_1493" x="0.465935" y="1076.95" width="1260.38" height="1389.68" filterUnits="userSpaceOnUse" color-interpolation-filters="sRGB">
<feFlood flood-opacity="0" result="BackgroundImageFix"/>
<feBlend mode="normal" in="SourceGraphic" in2="BackgroundImageFix" result="shape"/>
<feGaussianBlur stdDeviation="140" result="effect1_foregroundBlur_441_1493"/>
</filter>
<filter id="filter2_f_441_1493" x="1410.28" y="1745.52" width="1348.51" height="1520.42" filterUnits="userSpaceOnUse" color-interpolation-filters="sRGB">
<feFlood flood-opacity="0" result="BackgroundImageFix"/>
<feBlend mode="normal" in="SourceGraphic" in2="BackgroundImageFix" result="shape"/>
<feGaussianBlur stdDeviation="145" result="effect1_foregroundBlur_441_1493"/>
</filter>
<radialGradient id="paint0_radial_441_1493" cx="0" cy="0" r="1" gradientUnits="userSpaceOnUse" gradientTransform="translate(1950.55 775.598) rotate(148.535) scale(821.744 664.782)">
<stop stop-color="#FF5A26"/>
<stop offset="1" stop-color="#FF5A26" stop-opacity="0"/>
</radialGradient>
<radialGradient id="paint1_radial_441_1493" cx="0" cy="0" r="1" gradientUnits="userSpaceOnUse" gradientTransform="translate(606.035 1764.6) rotate(84.5666) scale(631.802 511.121)">
<stop stop-color="#FF5A26"/>
<stop offset="1" stop-color="#FF5A26" stop-opacity="0"/>
</radialGradient>
<radialGradient id="paint2_radial_441_1493" cx="0" cy="0" r="1" gradientUnits="userSpaceOnUse" gradientTransform="translate(2101.79 2502.1) rotate(117.155) scale(702.716 568.489)">
<stop stop-color="#FF5A26"/>
<stop offset="1" stop-color="#FF5A26" stop-opacity="0"/>
</radialGradient>
</defs>
</svg>
