<svg width="34" height="34" viewBox="0 0 34 34" fill="none" xmlns="http://www.w3.org/2000/svg">
<path d="M0.421143 4.23857C0.421143 2.21365 2.06289 0.571899 4.08781 0.571899H29.7545C31.7794 0.571899 33.4211 2.21365 33.4211 4.23857V29.9052C33.4211 31.9302 31.7794 33.5719 29.7545 33.5719H4.08781C2.06289 33.5719 0.421143 31.9302 0.421143 29.9052V4.23857Z" fill="#03A9F4"/>
<path d="M13.2691 12.6481H11.434V16.7126H13.2425C13.744 16.7126 14.1317 16.5485 14.4067 16.2203C14.6817 15.8922 14.8183 15.4146 14.8183 14.7876C14.8183 14.1367 14.678 13.6197 14.3975 13.2347C14.117 12.8497 13.7403 12.6545 13.2691 12.6481Z" fill="#020F16"/>
<path d="M3.17114 3.3219V30.8219H30.6712V3.3219H3.17114ZM16.3391 17.7952C15.5819 18.5358 14.5314 18.9052 13.1885 18.9052H11.434V23.4886H8.80223V10.4545H13.2426C14.5314 10.4545 15.5599 10.8551 16.3262 11.6544C17.0926 12.4537 17.4766 13.4923 17.4766 14.7692C17.4766 16.0462 17.0971 17.0545 16.3391 17.7952ZM24.8796 22.8799C24.2297 23.4052 23.3754 23.6673 22.3194 23.6673C21.609 23.6673 20.982 23.5289 20.4393 23.2512C19.8966 22.9734 19.4704 22.5866 19.1633 22.0916C18.8562 21.5966 18.7022 21.0622 18.7022 20.4892H21.1103C21.1231 20.9302 21.2249 21.262 21.4192 21.4829C21.6136 21.7038 21.9307 21.8138 22.3726 21.8138C23.0527 21.8138 23.3928 21.5067 23.3928 20.8917C23.3928 20.6772 23.2901 20.4782 23.0839 20.2967C22.8776 20.1152 22.4211 19.8696 21.7107 19.5588C20.6666 19.1353 19.9489 18.6972 19.5575 18.2425C19.1661 17.7878 18.9708 17.225 18.9708 16.5503C18.9708 15.7024 19.277 15.003 19.8884 14.4512C20.4998 13.8993 21.3111 13.6234 22.3185 13.6234C23.38 13.6234 24.2306 13.8984 24.8696 14.4466C25.5085 14.9947 25.8275 15.7327 25.8275 16.6576H23.2938C23.2938 15.8702 22.9666 15.476 22.3093 15.476C22.0407 15.476 21.8207 15.5594 21.6466 15.7262C21.4724 15.8931 21.3871 16.1268 21.3871 16.4247C21.3871 16.6392 21.4825 16.829 21.6741 16.9931C21.8656 17.1572 22.3148 17.3918 23.0261 17.6962C24.0592 18.0784 24.788 18.5037 25.2151 18.9722C25.6423 19.4406 25.855 20.0483 25.855 20.7936C25.855 21.6598 25.5296 22.3547 24.8796 22.8799Z" fill="#020F16"/>
</svg>
