<svg width="547" height="643" viewBox="0 0 547 643" fill="none" xmlns="http://www.w3.org/2000/svg">
<g opacity="0.6" filter="url(#filter0_f_705_242)">
<path d="M423.062 213.899C394.968 244.336 347.51 246.226 317.062 218.121C286.614 190.016 284.706 142.559 312.8 112.122C340.895 81.6852 412.421 53.72 442.869 81.8249C473.317 109.93 451.157 183.462 423.062 213.899Z" fill="url(#paint0_radial_705_242)" fill-opacity="0.6"/>
</g>
<g opacity="0.6" filter="url(#filter1_f_705_242)">
<path d="M213.32 329.745C224.867 359.425 210.159 392.849 180.469 404.401C150.778 415.953 117.348 401.257 105.801 371.578C94.2536 341.898 99.0689 283.048 128.759 271.496C158.45 259.944 201.772 300.066 213.32 329.745Z" fill="url(#paint1_radial_705_242)" fill-opacity="0.5"/>
</g>
<g opacity="0.6" filter="url(#filter2_f_705_242)">
<path d="M464.767 511.018C457.808 545.75 424.002 568.262 389.258 561.301C354.514 554.341 331.99 520.543 338.948 485.812C345.906 451.081 385.673 398.814 420.417 405.775C455.161 412.736 471.725 476.287 464.767 511.018Z" fill="url(#paint2_radial_705_242)" fill-opacity="0.7"/>
</g>
<defs>
<filter id="filter0_f_705_242" x="222.917" y="0.212708" width="304.6" height="307.81" filterUnits="userSpaceOnUse" color-interpolation-filters="sRGB">
<feFlood flood-opacity="0" result="BackgroundImageFix"/>
<feBlend mode="normal" in="SourceGraphic" in2="BackgroundImageFix" result="shape"/>
<feGaussianBlur stdDeviation="35" result="effect1_foregroundBlur_705_242"/>
</filter>
<filter id="filter1_f_705_242" x="0.0195312" y="169.462" width="317.238" height="338.881" filterUnits="userSpaceOnUse" color-interpolation-filters="sRGB">
<feFlood flood-opacity="0" result="BackgroundImageFix"/>
<feBlend mode="normal" in="SourceGraphic" in2="BackgroundImageFix" result="shape"/>
<feGaussianBlur stdDeviation="50" result="effect1_foregroundBlur_705_242"/>
</filter>
<filter id="filter2_f_705_242" x="257.686" y="325.145" width="288.642" height="317.419" filterUnits="userSpaceOnUse" color-interpolation-filters="sRGB">
<feFlood flood-opacity="0" result="BackgroundImageFix"/>
<feBlend mode="normal" in="SourceGraphic" in2="BackgroundImageFix" result="shape"/>
<feGaussianBlur stdDeviation="40" result="effect1_foregroundBlur_705_242"/>
</filter>
<radialGradient id="paint0_radial_705_242" cx="0" cy="0" r="1" gradientUnits="userSpaceOnUse" gradientTransform="translate(380.201 149.718) rotate(148.535) scale(137.554 111.279)">
<stop stop-color="#FF5A26"/>
<stop offset="1" stop-color="#FF5A26" stop-opacity="0"/>
</radialGradient>
<radialGradient id="paint1_radial_705_242" cx="0" cy="0" r="1" gradientUnits="userSpaceOnUse" gradientTransform="translate(154.517 337.7) rotate(84.5666) scale(105.759 85.5577)">
<stop stop-color="#FF5A26"/>
<stop offset="1" stop-color="#FF5A26" stop-opacity="0"/>
</radialGradient>
<radialGradient id="paint2_radial_705_242" cx="0" cy="0" r="1" gradientUnits="userSpaceOnUse" gradientTransform="translate(404.896 483.247) rotate(117.155) scale(117.629 95.1607)">
<stop stop-color="#FF5A26"/>
<stop offset="1" stop-color="#FF5A26" stop-opacity="0"/>
</radialGradient>
</defs>
</svg>
