<svg width="37" height="36" viewBox="0 0 37 36" fill="none" xmlns="http://www.w3.org/2000/svg">
<path d="M21.6019 0.499939L25.3936 0.523455C25.4651 0.575681 25.5229 0.609861 25.5841 0.635564C26.2714 0.928142 27.0164 1.1376 27.6358 1.52642C29.4313 2.65025 31.1847 3.83451 32.937 5.01822C33.7515 5.56701 34.5543 6.13849 35.3051 6.76002C35.8632 7.22158 36.1138 7.87646 36.1152 8.57482L36.1138 30.5513C36.1129 30.8578 36.0572 31.1731 35.9666 31.4678C35.5549 32.8115 34.6417 33.7311 33.2047 34.0901C32.4469 34.279 31.6464 34.3378 30.8604 34.3988C29.6343 34.4948 28.4037 34.5418 27.1753 34.6113L24.8513 34.748L21.1301 34.9542L18.8424 35.0887L15.0849 35.2938L13.1431 35.3687C13.0806 35.3717 13.0229 35.454 12.9639 35.4999C11.486 35.4999 10.0093 35.4999 8.51889 35.4775C8.44747 35.4242 8.39317 35.3813 8.32958 35.3643C7.42891 35.1185 6.6737 34.6498 6.09299 33.9692C5.28871 33.0283 4.5245 32.0585 3.751 31.0951C2.80038 29.9114 1.82509 28.7452 0.926733 27.5276C0.398705 26.8161 0.115884 25.9689 0.116647 25.1008C0.114115 18.6103 0.114987 12.1197 0.11926 5.62908C0.11926 5.44205 0.154102 5.2531 0.188364 5.06717C0.548983 3.06888 2.11979 2.00275 3.98793 1.80506C4.95771 1.70252 5.93417 1.65658 6.90859 1.59588L9.48403 1.45588L10.5911 1.38752L13.9302 1.11627L15.7812 0.979548L18.8471 0.77447L21.4225 0.631189C21.4852 0.627087 21.543 0.545876 21.6019 0.499939ZM6.9957 31.6538C7.15017 31.8427 7.32235 32.0221 7.45736 32.2231C8.11182 33.1875 9.04995 33.5378 10.2418 33.4631L18.3163 33.0103L27.4032 32.4932L31.9275 32.2187C33.2683 32.1172 33.9158 31.4347 33.9419 30.1679V29.8945L33.9521 9.15068C33.9533 8.52588 33.7242 8.08892 33.1934 7.73974L26.7987 3.49599C25.7699 2.79107 24.6779 2.46213 23.4131 2.55619L16.2519 3.05494L8.76395 3.57502L4.064 3.9201C3.11455 4.00213 2.526 4.549 2.35585 5.42619C2.31428 5.65008 2.29416 5.87703 2.29575 6.10431L2.2763 24.2174C2.26962 25.4041 2.65521 26.3912 3.40954 27.299L6.9957 31.6538Z" fill="white"/>
<path d="M7.04177 31.5327L3.49228 27.2266C2.74213 26.3251 2.35868 25.3453 2.36532 24.1669L2.38466 6.18157C2.38466 5.95676 2.40257 5.72869 2.44443 5.50823C2.61364 4.6375 3.19891 4.09448 4.1431 4.01275L8.81695 3.67011L16.2636 3.1537L23.3848 2.65846C24.6426 2.56506 25.7285 2.89169 26.7515 3.59164C28.8484 5.02657 30.9845 6.41073 33.1107 7.80547C33.6386 8.15219 33.8664 8.58606 33.8652 9.20646L33.8551 29.8051V30.0766C33.8291 31.3334 33.1852 32.0111 31.8518 32.1118C30.3541 32.2253 28.853 32.2986 27.3527 32.3844L18.3162 32.8976L10.2866 33.3475C9.10136 33.4216 8.16844 33.0738 7.51761 32.1162C7.38335 31.9166 7.21213 31.7385 7.04177 31.5327ZM8.89144 19.0454V28.1377L8.89375 29.8336C8.90934 30.5941 9.3055 30.9728 10.114 31.0163C10.317 31.0269 10.5223 31.0204 10.7264 31.0087L17.4951 30.6335L30.4206 29.9387C31.2261 29.8963 31.5983 29.5643 31.6737 28.8135C31.6884 28.6786 31.6838 28.542 31.6838 28.4063L31.6849 10.9001C31.6849 10.7983 31.6884 10.6965 31.6818 10.5947C31.6333 9.898 31.3151 9.61373 30.5788 9.65065L23.9172 10.0115C20.797 10.1822 17.6769 10.3539 14.5568 10.5268L9.8772 10.791C9.28067 10.8268 9.01098 11.0687 8.92089 11.6172C8.89961 11.7626 8.89015 11.9094 8.8926 12.0562L8.89144 19.0454ZM25.3993 4.72954C24.8343 4.4412 24.2207 4.34562 23.5889 4.37848C22.6179 4.42843 21.6469 4.50364 20.6755 4.56962L6.8307 5.51556C6.41231 5.54407 5.99162 5.57258 5.57872 5.6429C5.44012 5.66625 5.26515 5.79766 5.22241 5.91658C5.19065 6.0002 5.33069 6.16908 5.43319 6.2614C5.6229 6.4319 5.84147 6.57499 6.04821 6.72894C6.53878 7.09276 7.06082 7.42454 7.51097 7.82665C8.36478 8.58905 9.35834 8.76526 10.4966 8.68788L19.4576 8.15952L29.1045 7.61542C29.1925 7.61134 29.2806 7.58582 29.4743 7.55188C29.2973 7.37893 29.1946 7.24643 29.0606 7.15303C28.588 6.82482 28.1108 6.50242 27.6293 6.18592C26.8895 5.69575 26.1461 5.21028 25.3993 4.72954Z" fill="black"/>
<path d="M9.00884 18.9846L9.00999 11.8991C9.00999 11.7497 9.01457 11.5987 9.03805 11.4518C9.1274 10.8931 9.39486 10.6469 9.98647 10.6102L14.6275 10.341L23.9107 9.81605L30.517 9.44846C31.2475 9.41084 31.5631 9.70126 31.6109 10.4102C31.6178 10.5139 31.6144 10.6176 31.6144 10.7213L31.6132 28.5553L31.6032 28.9702C31.5285 29.735 31.1593 30.0733 30.3604 30.1164L17.5415 30.8242L10.8287 31.2065L10.2216 31.2142C9.41948 31.17 9.0266 30.7841 9.01113 30.0105L9.00884 28.2818V18.9846ZM22.1144 19.0028L18.4295 13.5802C18.3009 13.391 18.1746 13.3285 17.9375 13.3534L16.3669 13.4558L13.4775 13.6602C12.7673 13.7229 12.3378 14.368 12.5345 15.0368L14.0648 15.1632V27.1378L13.0225 27.4218C12.5603 27.5535 12.3624 27.9297 12.5179 28.4104L16.0424 28.2148L17.4307 28.1047C18.0292 28.0096 18.3513 27.6553 18.4318 27.0772L16.5046 26.6526V17.6459L16.6478 17.8395L21.0772 24.5198C21.7283 25.4954 22.397 26.4599 23.0829 27.413C23.5717 28.0906 24.2922 28.2981 25.102 28.1294C25.6088 28.0248 26.0954 27.8259 26.5919 27.6713C26.8505 27.5903 26.9387 27.4412 26.9375 27.1613L26.929 14.8528C26.929 14.1334 26.929 14.1334 27.6658 13.9899C28.4109 13.8449 28.5976 13.5575 28.4275 12.7883L23.9746 13.0497C23.4901 13.0832 23.1232 13.4743 23.0496 13.9293C23.0136 14.1486 23.0605 14.2695 23.3323 14.2847L24.6805 14.4285V22.7759C23.8265 21.5177 22.9712 20.2604 22.1144 19.004V19.0028ZM25.4049 4.44708C26.1359 4.93465 26.8648 5.42515 27.5916 5.91856C28.0693 6.24108 28.5426 6.56961 29.0114 6.90407C29.1442 6.99921 29.2462 7.13419 29.4217 7.31038L29.0549 7.37511L19.4876 7.9294L10.6004 8.46765C9.4716 8.54648 8.48624 8.36697 7.63947 7.5903C7.19303 7.18094 6.6753 6.84266 6.18848 6.47203C5.98374 6.3152 5.76696 6.16943 5.57882 5.99545C5.47717 5.90141 5.33828 5.72992 5.36978 5.64418C5.41216 5.52331 5.58684 5.38944 5.72315 5.36565C6.13264 5.29429 6.54987 5.26497 6.96481 5.23593L20.6958 4.27227L23.5851 4.07755C24.2114 4.04436 24.8199 4.14117 25.4049 4.44708Z" fill="white"/>
<path d="M22.0689 18.9146L24.6959 22.6893V14.2924L23.3077 14.1478C23.0275 14.1327 22.9791 14.0111 23.016 13.7905C23.0921 13.3328 23.4702 12.9394 23.9686 12.9057L28.5552 12.6428C28.7303 13.4163 28.538 13.7057 27.7706 13.8512C27.0115 13.9947 27.0115 13.9947 27.0115 14.7195L27.0206 27.1006C27.0218 27.3822 26.9309 27.5322 26.6646 27.6137L25.1301 28.0744C24.296 28.243 23.5539 28.0355 23.0508 27.3538C22.3446 26.395 21.6559 25.4247 20.985 24.4436L16.4224 17.7235C16.3902 17.6757 16.3534 17.6312 16.2749 17.5291V26.589L18.2601 27.0161C18.1772 27.5975 17.8454 27.9537 17.229 28.0497C16.7589 28.1223 16.2764 28.1331 15.7992 28.1604L12.1691 28.3571C12.009 27.8735 12.2128 27.4952 12.6888 27.3627L13.7624 27.077V15.0317L12.1862 14.9045C11.9836 14.2318 12.426 13.583 13.1574 13.5198C14.1472 13.4327 15.1415 13.3796 16.1333 13.3145C16.6725 13.2797 17.214 13.2666 17.7511 13.2112C17.9953 13.1862 18.1256 13.2491 18.2578 13.4394L22.0689 18.9146Z" fill="black"/>
</svg>
