<svg width="51" height="50" viewBox="0 0 51 50" fill="none" xmlns="http://www.w3.org/2000/svg">
<path d="M40.0833 6.25C41.1884 6.25 42.2482 6.68899 43.0296 7.47039C43.811 8.25179 44.25 9.3116 44.25 10.4167V39.5833C44.25 40.6884 43.811 41.7482 43.0296 42.5296C42.2482 43.311 41.1884 43.75 40.0833 43.75H10.9167C9.8116 43.75 8.75179 43.311 7.97039 42.5296C7.18899 41.7482 6.75 40.6884 6.75 39.5833V10.4167C6.75 9.3116 7.18899 8.25179 7.97039 7.47039C8.75179 6.68899 9.8116 6.25 10.9167 6.25H40.0833ZM39.0417 38.5417V27.5C39.0417 25.6987 38.3261 23.9713 37.0524 22.6976C35.7787 21.4239 34.0513 20.7083 32.25 20.7083C30.4792 20.7083 28.4167 21.7917 27.4167 23.4167V21.1042H21.6042V38.5417H27.4167V28.2708C27.4167 26.6667 28.7083 25.3542 30.3125 25.3542C31.086 25.3542 31.8279 25.6615 32.3749 26.2084C32.9219 26.7554 33.2292 27.4973 33.2292 28.2708V38.5417H39.0417ZM14.8333 17.8333C15.7616 17.8333 16.6518 17.4646 17.3082 16.8082C17.9646 16.1518 18.3333 15.2616 18.3333 14.3333C18.3333 12.3958 16.7708 10.8125 14.8333 10.8125C13.8996 10.8125 13.004 11.1834 12.3437 11.8437C11.6834 12.504 11.3125 13.3996 11.3125 14.3333C11.3125 16.2708 12.8958 17.8333 14.8333 17.8333ZM17.7292 38.5417V21.1042H11.9583V38.5417H17.7292Z" fill="#C2BEBE"/>
</svg>
