<svg width="250" height="45" viewBox="0 0 250 45" fill="none" xmlns="http://www.w3.org/2000/svg">
<path d="M28.8869 44.2416V25.7233H8.78885V44.2416H0V0H8.78885V18.0758H28.8869V0H37.6757V44.2416H28.8869Z" fill="#FF5B28"/>
<path d="M59.0743 45C50.7378 45 44.4047 39.8806 44.4047 31.1587V11.6924H52.8058V30.6531C52.8058 35.5197 55.4554 37.7317 59.0743 37.7317C62.7579 37.7317 65.3428 35.5197 65.3428 30.6531V11.6924H73.7439V31.1587C73.7439 39.8806 67.4754 45 59.0743 45Z" fill="#FF5B28"/>
<path d="M94.7462 38.0478C98.6882 38.0478 101.532 36.2781 103.277 31.8539L110.321 34.382C107.736 41.7135 101.855 45 95.0693 45C85.2465 45 78.3963 38.1742 78.3963 27.9354C78.3963 17.823 85.1172 10.934 94.6815 10.934C103.923 10.934 110.385 17.7598 110.385 27.8722C110.385 28.441 110.385 29.1994 110.321 29.7683H86.8621C87.3791 35.4565 90.481 38.0478 94.7462 38.0478ZM94.6815 17.507C90.6102 17.507 88.0253 19.7191 87.1206 24.2065H101.919C101.015 19.5927 98.3005 17.507 94.6815 17.507Z" fill="#FF5B28"/>
<path d="M110.858 11.6924H119.97L127.984 33.1812L135.997 11.6924H144.915L131.861 44.2416H123.977L110.858 11.6924Z" fill="#FF5B28"/>
<path d="M198.018 45C190.91 45 184.576 41.6503 182.767 34.1924L189.488 32.0435C190.457 36.3413 193.818 38.427 198.018 38.427C201.766 38.427 204.093 37.2261 204.093 35.2669C204.093 33.3708 202.283 32.5492 198.212 31.5379L194.916 30.7795C187.226 28.9466 183.995 25.7865 183.995 20.6671C183.995 14.8525 189.229 10.934 197.307 10.934C205.062 10.934 210.814 14.9157 211.718 21.4256L204.804 23.1952C204.093 19.2135 201.055 17.5702 197.307 17.5702C194.011 17.5702 191.879 18.8343 191.879 20.4775C191.879 22.5632 194.335 23.2584 198.277 24.2065L201.508 25.0281C208.552 26.6713 212.042 29.9579 212.042 34.8876C212.042 40.8919 206.484 45 198.018 45Z" fill="#FF5B28"/>
<path d="M219.816 32.9284V18.2022H213.741V11.6924H219.816V5.43539L228.153 0.948033V11.6924H235.584V18.2022H228.153V32.5492C228.153 35.6461 229.38 37.2261 232.03 37.2261H235.584V44.2416H230.996C223.887 44.2416 219.816 39.8806 219.816 32.9284Z" fill="#FF5B28"/>
<path d="M244.507 45C241.211 45 238.949 42.6615 238.949 39.5014C238.949 36.2781 241.211 34.0028 244.507 34.0028C247.738 34.0028 250 36.2781 250 39.5014C250 42.6615 247.738 45 244.507 45Z" fill="#C2BEBE"/>
<path fill-rule="evenodd" clip-rule="evenodd" d="M153.425 41.4971C161.186 45.9848 171.196 43.4717 175.783 35.8839C180.37 28.2962 181.726 12.0068 173.965 7.51916C166.204 3.03152 152.264 12.045 147.677 19.6328C143.09 27.2205 145.663 37.0095 153.425 41.4971ZM161.951 36.3524C166.55 36.3524 170.278 32.149 170.278 26.9639C170.278 21.7787 166.55 17.5753 161.951 17.5753C157.352 17.5753 153.623 21.7787 153.623 26.9639C153.623 32.149 157.352 36.3524 161.951 36.3524Z" fill="#FF5B28"/>
</svg>
