<svg width="370" height="68" viewBox="0 0 370 68" fill="none" xmlns="http://www.w3.org/2000/svg">
<path d="M42.7526 66.0456V38.4008H13.0075V66.0456H0V0H13.0075V26.9843H42.7526V0H55.7601V66.0456H42.7526Z" fill="#FF5B28"/>
<path d="M87.43 67.1778C75.092 67.1778 65.7189 59.5354 65.7189 46.515V17.4549H78.1526V45.7602C78.1526 53.0252 82.0739 56.3275 87.43 56.3275C92.8816 56.3275 96.7074 53.0252 96.7074 45.7602V17.4549H109.141V46.515C109.141 59.5354 99.8636 67.1778 87.43 67.1778Z" fill="#FF5B28"/>
<path d="M140.224 56.7992C146.059 56.7992 150.267 54.1574 152.849 47.5528L163.274 51.3269C159.449 62.2716 150.745 67.1778 140.703 67.1778C126.165 67.1778 116.027 56.9879 116.027 41.7031C116.027 26.6069 125.973 16.3227 140.129 16.3227C153.806 16.3227 163.37 26.5126 163.37 41.6087C163.37 42.4579 163.37 43.5901 163.274 44.4393H128.556C129.321 52.9308 133.912 56.7992 140.224 56.7992ZM140.129 26.1352C134.103 26.1352 130.277 29.4375 128.938 36.1364H150.841C149.502 29.2488 145.485 26.1352 140.129 26.1352Z" fill="#FF5B28"/>
<path d="M164.07 17.4549H177.556L189.416 49.5342L201.275 17.4549H214.474L195.154 66.0456H183.486L164.07 17.4549Z" fill="#FF5B28"/>
<path d="M293.067 67.1778C282.546 67.1778 273.173 62.1772 270.495 51.0438L280.442 47.8359C281.877 54.2518 286.85 57.3653 293.067 57.3653C298.614 57.3653 302.057 55.5727 302.057 52.6478C302.057 49.8173 299.379 48.5907 293.354 47.0811L288.476 45.9489C277.094 43.2127 272.312 38.4952 272.312 30.8527C272.312 22.1725 280.059 16.3227 292.015 16.3227C303.492 16.3227 312.004 22.2668 313.343 31.9849L303.109 34.6268C302.057 28.6827 297.562 26.2295 292.015 26.2295C287.137 26.2295 283.981 28.1166 283.981 30.5697C283.981 33.6833 287.615 34.7211 293.449 36.1364L298.232 37.3629C308.657 39.8161 313.822 44.7223 313.822 52.0817C313.822 61.045 305.596 67.1778 293.067 67.1778Z" fill="#FF5B28"/>
<path d="M325.328 49.1568V27.173H316.337V17.4549H325.328V8.11418L337.666 1.41526V17.4549H348.665V27.173H337.666V48.5907C337.666 53.2139 339.483 55.5727 343.404 55.5727H348.665V66.0456H341.874C331.353 66.0456 325.328 59.5354 325.328 49.1568Z" fill="#FF5B28"/>
<path d="M361.87 67.1778C356.993 67.1778 353.645 63.6868 353.645 58.9693C353.645 54.1574 356.993 50.7608 361.87 50.7608C366.652 50.7608 370 54.1574 370 58.9693C370 63.6868 366.652 67.1778 361.87 67.1778Z" fill="#C2BEBE"/>
<path fill-rule="evenodd" clip-rule="evenodd" d="M227.069 61.9486C238.555 68.6479 253.37 64.8962 260.159 53.569C266.948 42.2417 268.955 17.9242 257.468 11.2249C245.981 4.52557 225.35 17.9813 218.562 29.3086C211.773 40.6358 215.582 55.2493 227.069 61.9486ZM239.687 54.2683C246.494 54.2683 252.012 47.9934 252.012 40.2528C252.012 32.5122 246.494 26.2372 239.687 26.2372C232.881 26.2372 227.363 32.5122 227.363 40.2528C227.363 47.9934 232.881 54.2683 239.687 54.2683Z" fill="#FF5B28"/>
</svg>
