<svg width="16" height="15" viewBox="0 0 16 15" fill="none" xmlns="http://www.w3.org/2000/svg">
<path d="M3.94905 3.27316C3.67492 2.82156 3.53785 2.59577 3.55989 2.52982C3.57877 2.47334 3.62927 2.43338 3.68857 2.42799C3.75782 2.42169 3.94607 2.60699 4.32257 2.97757L7.20622 5.81596L7.69487 1.23692C7.73114 0.89706 7.74927 0.727129 7.78745 0.701085C7.82014 0.678776 7.86292 0.677851 7.89655 0.698727C7.93581 0.723098 7.96127 0.892087 8.01218 1.23007L8.69861 5.78635L11.4592 2.83369C11.8188 2.44902 11.9986 2.25669 12.0681 2.26009C12.1275 2.263 12.1796 2.30079 12.2009 2.35641C12.2257 2.42135 12.0987 2.65201 11.8447 3.11333L9.92414 6.60228L14.5761 5.64204C14.9357 5.56781 15.1155 5.5307 15.1521 5.55953C15.1834 5.58421 15.197 5.62512 15.1868 5.66365C15.1749 5.70865 15.0088 5.78693 14.6766 5.94347L10.4147 7.95209L14.1385 9.52714C14.6468 9.74212 14.9009 9.8496 14.9215 9.91635C14.9391 9.97349 14.9211 10.0356 14.8757 10.0745C14.8226 10.1199 14.5504 10.0749 14.0059 9.98497L9.98296 9.3202L12.3844 13.2761C12.5671 13.5772 12.6585 13.7277 12.6438 13.7717C12.6312 13.8093 12.5976 13.836 12.558 13.8396C12.5119 13.8438 12.3864 13.7202 12.1354 13.4732L8.79378 10.184L8.37113 14.1446C8.31672 14.6544 8.28952 14.9093 8.23227 14.9484C8.18322 14.9818 8.11906 14.9832 8.06861 14.9519C8.00972 14.9154 7.97154 14.6619 7.89516 14.1549L7.30139 10.2136L4.1035 13.6341C3.86374 13.8905 3.74386 14.0187 3.69758 14.0165C3.65794 14.0145 3.62319 13.9893 3.60904 13.9523C3.59251 13.909 3.67716 13.7552 3.84646 13.4476L6.07586 9.39772L2.08236 10.222C1.54293 10.3334 1.27321 10.3891 1.21838 10.3458C1.17144 10.3088 1.15097 10.2474 1.16628 10.1896C1.18416 10.1221 1.43328 10.0047 1.93153 9.7699L5.58528 8.04791L1.24098 6.21041C0.902145 6.06709 0.732728 5.99544 0.719008 5.95094C0.707262 5.91285 0.719264 5.87141 0.749553 5.8455C0.784931 5.81522 0.966419 5.84521 1.3294 5.90519L6.01704 6.6798L3.94905 3.27316Z" fill="#C2BEBE"/>
</svg>
