<svg width="14" height="13" viewBox="0 0 14 13" fill="none" xmlns="http://www.w3.org/2000/svg">
<path d="M3.58046 3.06999C3.30632 2.6184 3.16926 2.39261 3.1913 2.32666C3.21018 2.27018 3.26068 2.23022 3.31998 2.22483C3.38923 2.21853 3.57748 2.40382 3.95398 2.77441L6.30545 5.08897L6.71651 1.23692C6.75278 0.897061 6.77092 0.727129 6.80909 0.701085C6.84178 0.678776 6.88456 0.677851 6.91819 0.698727C6.95745 0.723098 6.98291 0.892087 7.03382 1.23007L7.61128 5.06306L9.86278 2.65489C10.2224 2.27022 10.4022 2.07789 10.4717 2.08128C10.5311 2.08419 10.5832 2.12199 10.6045 2.17761C10.6293 2.24255 10.5023 2.47321 10.2483 2.93453L8.68363 5.777L12.5895 4.97077C12.9491 4.89654 13.1289 4.85942 13.1655 4.88825C13.1967 4.91294 13.2104 4.95385 13.2002 4.99237C13.1883 5.03738 13.0222 5.11565 12.69 5.2722L9.11288 6.95808L12.1385 8.23783C12.6468 8.45281 12.9009 8.56029 12.9215 8.62704C12.9391 8.68418 12.9211 8.74633 12.8757 8.7852C12.8226 8.83062 12.5504 8.78563 12.0059 8.69566L8.73509 8.15518L10.753 11.4793C10.9357 11.7804 11.0271 11.9309 11.0124 11.9749C10.9998 12.0125 10.9662 12.0391 10.9266 12.0427C10.8805 12.0469 10.755 11.9234 10.504 11.6763L7.69455 8.91103L7.34948 12.1446C7.29508 12.6544 7.26788 12.9093 7.21063 12.9484C7.16158 12.9818 7.09742 12.9832 7.04697 12.9519C6.98808 12.9154 6.94989 12.6619 6.87352 12.1549L6.38872 8.93694L3.69989 11.8129C3.46013 12.0693 3.34025 12.1975 3.29397 12.1953C3.25433 12.1933 3.21959 12.1681 3.20543 12.1311C3.1889 12.0878 3.27355 11.934 3.44285 11.6264L5.31637 8.223L2.06899 8.89332C1.52955 9.00467 1.25984 9.06034 1.20501 9.01709C1.15807 8.98007 1.13759 8.9187 1.1529 8.86091C1.17079 8.7934 1.41991 8.67599 1.91815 8.44117L4.88712 7.04192L1.24098 5.49972C0.902146 5.35641 0.732728 5.28475 0.719008 5.24025C0.707262 5.20216 0.719264 5.16072 0.749553 5.13481C0.784931 5.10453 0.966419 5.13452 1.3294 5.1945L5.26491 5.84482L3.58046 3.06999Z" fill="#C2BEBE"/>
</svg>
