<svg width="16" height="15" viewBox="0 0 16 15" fill="none" xmlns="http://www.w3.org/2000/svg">
<path d="M3.57393 2.65521C3.48227 2.50421 3.68149 2.34656 3.80738 2.47047L7.20622 5.81596L7.74437 0.773077C7.75682 0.656457 7.92522 0.652818 7.94269 0.768791L8.69861 5.78635L11.9512 2.30747C12.0718 2.17849 12.2773 2.32756 12.1921 2.48224L9.92414 6.60228L15.0699 5.54011C15.1859 5.51617 15.2399 5.67802 15.1328 5.7285L10.4147 7.95209L14.8366 9.8224C15.0002 9.8916 14.929 10.1375 14.7537 10.1085L9.98296 9.3202L12.6345 13.6881C12.6956 13.7888 12.5628 13.8939 12.4788 13.8113L8.79378 10.184L8.29688 14.8404C8.27821 15.0153 8.02561 15.0208 7.9994 14.8468L7.30139 10.2136L3.77551 13.9849C3.69512 14.0709 3.55809 13.9715 3.61486 13.8684L6.07586 9.39772L1.3416 10.3749C1.16765 10.4109 1.08667 10.1681 1.24733 10.0924L5.58528 8.04791L0.775613 6.01358C0.666532 5.96744 0.714019 5.8035 0.830872 5.82281L6.01704 6.6798L3.57393 2.65521Z" fill="#C2BEBE"/>
</svg>
