<svg width="41" height="41" viewBox="0 0 41 41" fill="none" xmlns="http://www.w3.org/2000/svg">
<path d="M18.9235 0.0718994C14.5702 0.0718994 10.8422 2.7123 9.34004 6.42106C6.19747 6.82747 3.38955 8.60216 1.77381 11.3129C-0.402324 14.9626 0.0934987 19.407 2.65829 22.5208C1.45156 25.3582 1.63366 28.6006 3.24795 31.3099C5.425 34.9611 9.65286 36.7675 13.7221 36.1717C15.6567 38.6029 18.6464 40.0719 21.878 40.0719C26.2313 40.0719 29.9593 37.4315 31.4615 33.7227C34.604 33.3163 37.412 31.5416 39.0277 28.8309C41.2038 25.1812 40.708 20.7368 38.1432 17.623C39.35 14.7856 39.1679 11.5432 37.5536 8.83392C35.3765 5.18268 31.1487 3.37631 27.0794 3.97214C25.1448 1.54087 22.1551 0.0718994 18.9235 0.0718994ZM18.9235 3.14882C20.7606 3.14882 22.4833 3.84827 23.7866 5.03584C23.6871 5.08735 23.584 5.12806 23.4856 5.18308L16.4314 9.12839C15.6973 9.53762 15.2429 10.296 15.2397 11.1176L15.1963 20.2973L11.8042 18.3802V10.0419C11.8042 6.24185 14.9988 3.14882 18.9235 3.14882ZM29.1277 6.94389C31.4083 7.10099 33.5743 8.31565 34.8008 10.3724C35.7192 11.9122 35.9559 13.707 35.5456 15.3934C35.4486 15.335 35.3598 15.2688 35.2601 15.2131L28.2028 11.2678C27.4687 10.8586 26.5644 10.8571 25.8287 11.2648L17.5983 15.8201L17.617 12.019L25.0746 7.84834C26.3491 7.13584 27.7593 6.84964 29.1277 6.94389ZM8.64176 9.71433C8.63805 9.82383 8.62624 9.9315 8.62624 10.0419V17.9295C8.62624 18.751 9.07614 19.5108 9.80866 19.9247L17.9987 24.5491L14.5911 26.4331L7.13037 22.2654C3.73157 20.3654 2.5642 16.1391 4.52657 12.8483C5.44444 11.3094 6.92949 10.2139 8.64176 9.71433ZM26.2104 13.7107L33.6711 17.8784C37.0699 19.7784 38.2373 24.0047 36.2749 27.2955C35.3571 28.8344 33.872 29.9299 32.1598 30.4295C32.1635 30.32 32.1753 30.2123 32.1753 30.1019V22.2143C32.1753 21.3928 31.7254 20.633 30.9929 20.2191L22.8028 15.5947L26.2104 13.7107ZM20.4163 16.9138L23.2311 18.5034L23.2156 21.6644L20.3852 23.23L17.5704 21.6374L17.5859 18.4794L20.4163 16.9138ZM25.6053 19.8465L28.9973 21.7636V30.1019C28.9973 33.9019 25.8028 36.995 21.878 36.995C20.0409 36.995 18.3182 36.2955 17.0149 35.108C17.1144 35.0564 17.2175 35.0157 17.3159 34.9607L24.3701 31.0154C25.1042 30.6062 25.5586 29.8478 25.5618 29.0262L25.6053 19.8465ZM23.2032 24.3237L23.1846 28.1248L15.7269 32.2955C12.3281 34.1955 7.96309 33.0622 6.00072 29.7714C5.08232 28.2316 4.8456 26.4368 5.25589 24.7504C5.35289 24.8088 5.44174 24.875 5.54141 24.9307L12.5987 28.876C13.3328 29.2852 14.2371 29.2867 14.9728 28.879L23.2032 24.3237Z" fill="#F7F2F0"/>
</svg>
