<svg width="28" height="40" viewBox="0 0 28 40" fill="none" xmlns="http://www.w3.org/2000/svg">
<path d="M7.12549 40C10.8615 40 13.8755 37.0233 13.8755 33.3333V26.6667H7.12549C3.38944 26.6667 0.375488 29.6434 0.375488 33.3333C0.375488 37.0233 3.38944 40 7.12549 40Z" fill="#0ACF83"/>
<path d="M0.375488 20C0.375488 16.3101 3.38944 13.3333 7.12549 13.3333H13.8755V26.6667H7.12549C3.38944 26.6667 0.375488 23.6899 0.375488 20Z" fill="#A259FF"/>
<path d="M0.375488 6.66667C0.375488 2.97674 3.38944 0 7.12549 0H13.8755V13.3333H7.12549C3.38944 13.3333 0.375488 10.3566 0.375488 6.66667Z" fill="#F24E1E"/>
<path d="M13.8755 0H20.6255C24.3615 0 27.3755 2.97674 27.3755 6.66667C27.3755 10.3566 24.3615 13.3333 20.6255 13.3333H13.8755V0Z" fill="#FF7262"/>
<path d="M27.3755 20C27.3755 23.6899 24.3615 26.6667 20.6255 26.6667C16.8894 26.6667 13.8755 23.6899 13.8755 20C13.8755 16.3101 16.8894 13.3333 20.6255 13.3333C24.3615 13.3333 27.3755 16.3101 27.3755 20Z" fill="#1ABCFE"/>
</svg>
