<svg width="19" height="28" viewBox="0 0 19 28" fill="none" xmlns="http://www.w3.org/2000/svg">
<path d="M5.47852 27.5C7.96921 27.5 9.97852 25.4907 9.97852 23V18.5H5.47852C2.98782 18.5 0.978516 20.5093 0.978516 23C0.978516 25.4907 2.98782 27.5 5.47852 27.5Z" fill="#0ACF83"/>
<path d="M0.978516 14C0.978516 11.5093 2.98782 9.5 5.47852 9.5H9.97852V18.5H5.47852C2.98782 18.5 0.978516 16.4907 0.978516 14Z" fill="#A259FF"/>
<path d="M0.978516 5C0.978516 2.5093 2.98782 0.5 5.47852 0.5H9.97852V9.5H5.47852C2.98782 9.5 0.978516 7.4907 0.978516 5Z" fill="#F24E1E"/>
<path d="M9.97852 0.5H14.4785C16.9692 0.5 18.9785 2.5093 18.9785 5C18.9785 7.4907 16.9692 9.5 14.4785 9.5H9.97852V0.5Z" fill="#FF7262"/>
<path d="M18.9785 14C18.9785 16.4907 16.9692 18.5 14.4785 18.5C11.9878 18.5 9.97852 16.4907 9.97852 14C9.97852 11.5093 11.9878 9.5 14.4785 9.5C16.9692 9.5 18.9785 11.5093 18.9785 14Z" fill="#1ABCFE"/>
</svg>
